<?xml version="1.0" standalone="no"?><!DOCTYPE svg PUBLIC "-//W3C//DTD SVG 1.1//EN" "http://www.w3.org/Graphics/SVG/1.1/DTD/svg11.dtd"><svg t="1534259430659" class="icon" style="" viewBox="0 0 1024 1024" version="1.1" xmlns="http://www.w3.org/2000/svg" p-id="1729" xmlns:xlink="http://www.w3.org/1999/xlink" width="80" height="80"><defs><style type="text/css"></style></defs><path d="M623.209832 236.950168H401.705475c-15.10257 0-27.344804 12.242235-27.344805 27.344804v31.463687h276.079553V264.294972c0-15.10257-12.242235-27.344804-27.230391-27.344804zM512 0C229.284469 0 0 229.284469 0 512S229.284469 1024 512 1024 1024 794.715531 1024 512 794.715531 0 512 0z m223.563799 727.326034c0 46.33743-37.642011 83.979441-83.979441 83.979441H373.33095c-46.33743 0-83.979441-37.642011-83.979442-83.979441v-315.781006c0-15.10257 12.242235-27.344804 27.344805-27.344805s27.344804 12.242235 27.344804 27.344805v315.781006c0 16.246704 13.157542 29.404246 29.404246 29.404245h278.138995c16.246704 0 29.404246-13.157542 29.404245-29.404245v-315.781006c0-15.10257 12.242235-27.344804 27.344805-27.344805s27.344804 12.242235 27.344804 27.344805v315.781006z m-318.641341-67.732738V411.545028c0-15.10257 12.242235-27.344804 27.344805-27.344805s27.344804 12.242235 27.344804 27.344805v248.048268c0 15.10257-12.242235 27.344804-27.344804 27.344805s-27.344804-12.242235-27.344805-27.344805z m136.380782 0V411.545028c0-15.10257 12.242235-27.344804 27.344805-27.344805s27.344804 12.242235 27.344804 27.344805v248.048268c0 15.10257-12.242235 27.344804-27.344804 27.344805s-27.344804-12.242235-27.344805-27.344805z m241.755531-309.259441H229.742123c-15.10257 0-27.344804-12.242235-27.344805-27.344805s12.242235-27.344804 27.344805-27.344804h90.043352v-31.463687c0-45.193296 36.726704-81.92 81.92-81.92h221.504357c45.193296 0 81.92 36.726704 81.92 81.92v31.463687H795.173184c15.10257 0 27.344804 12.242235 27.344805 27.344804s-12.356648 27.344804-27.459218 27.344805z" fill="#1296db" p-id="1730"></path></svg>